<?xml version="1.0" encoding="UTF-8" standalone="no"?>
<!-- Created with Inkscape (http://www.inkscape.org/) -->

<svg
   width="210mm"
   height="297mm"
   viewBox="0 0 210 297"
   version="1.1"
   id="svg5"
   inkscape:version="1.1.1 (3bf5ae0d25, 2021-09-20)"
   sodipodi:docname="ico.svg"
   xmlns:inkscape="http://www.inkscape.org/namespaces/inkscape"
   xmlns:sodipodi="http://sodipodi.sourceforge.net/DTD/sodipodi-0.dtd"
   xmlns="http://www.w3.org/2000/svg"
   xmlns:svg="http://www.w3.org/2000/svg">
  <sodipodi:namedview
     id="namedview7"
     pagecolor="#ffffff"
     bordercolor="#666666"
     borderopacity="1.0"
     inkscape:pageshadow="2"
     inkscape:pageopacity="0.0"
     inkscape:pagecheckerboard="0"
     inkscape:document-units="mm"
     showgrid="false"
     inkscape:object-paths="true"
     inkscape:snap-intersection-paths="true"
     inkscape:zoom="2.8284271"
     inkscape:cx="132.7593"
     inkscape:cy="155.03316"
     inkscape:window-width="2560"
     inkscape:window-height="1369"
     inkscape:window-x="1366"
     inkscape:window-y="42"
     inkscape:window-maximized="1"
     inkscape:current-layer="layer1"
     inkscape:snap-global="false" />
  <defs
     id="defs2" />
  <g
     inkscape:label="Layer 1"
     inkscape:groupmode="layer"
     id="layer1">
    <text
       xml:space="preserve"
       style="font-style:normal;font-variant:normal;font-weight:normal;font-stretch:normal;font-size:10.5833px;line-height:6.61458px;font-family:Alfios;-inkscape-font-specification:Alfios;letter-spacing:0px;word-spacing:0px;fill:none;stroke:#000000;stroke-width:0.264583px;stroke-linecap:butt;stroke-linejoin:miter;stroke-opacity:1"
       x="-24.06184"
       y="7.9507933"
       id="text3967"><tspan
         sodipodi:role="line"
         id="tspan3965"
         style="font-style:normal;font-variant:normal;font-weight:normal;font-stretch:normal;font-family:Alfios;-inkscape-font-specification:Alfios;fill:#000000;stroke-width:0.264583px"
         x="-24.06184"
         y="7.9507933">AZ</tspan></text>
    <g
       id="g16153"
       transform="translate(-23.505435,-8.3087198)">
      <path
         d="m 12.762213,26.554706 q 0,0.127 -0.09525,0.127 h -0.02117 q -0.201083,0 -0.603248,-0.03175 -0.402166,-0.03175 -0.592665,-0.03175 -0.201083,0 -0.603248,0.03175 -0.402166,0.03175 -0.603248,0.03175 h -0.02117 q -0.09525,0 -0.09525,-0.275166 0,-0.105833 0.148167,-0.126999 0.116416,0 0.222249,-0.01058 0.359832,-0.02117 0.359832,-0.296332 0,-0.116416 -0.0635,-0.306916 L 10.148131,23.951219 H 7.8833053 l -0.507998,1.523995 q -0.08467,0.243416 -0.08467,0.402165 0,0.317499 0.370416,0.380999 0.222249,0.03175 0.444498,0.0635 0.03175,0.03175 0.03175,0.243416 0,0.116416 -0.09525,0.116416 h -0.02117 q -0.179916,0 -0.529165,-0.03175 -0.349249,-0.03175 -0.529165,-0.03175 -0.179916,0 -0.529165,0.03175 -0.349249,0.03175 -0.529165,0.03175 h -0.02117 q -0.08467,0 -0.08467,-0.275166 0,-0.105833 0.116416,-0.116416 0.127,-0.01058 0.243416,-0.02117 0.486832,-0.03175 0.687915,-0.603248 l 1.947327,-5.598565 q 0.560915,-0.338666 0.582081,-0.338666 0.03175,0 0.0635,0.08467 l 2.2965757,5.852565 q 0.148166,0.380999 0.380999,0.518582 0.148166,0.09525 0.370415,0.09525 0.22225,0 0.243416,0.03175 0.03175,0.03175 0.03175,0.243416 z m -2.7622407,-3.005657 -1.047747,-2.804574 -0.941914,2.804574 z"
         style="font-size:10.5833px;line-height:6.61458px;font-family:Alfios;-inkscape-font-specification:Alfios;letter-spacing:0px;word-spacing:0px;fill:#5e35b1;fill-opacity:1;stroke:none;stroke-width:0.264583px"
         id="path14347" />
      <path
         d="m 12.710916,24.954627 q 0,0.03859 -0.112214,0.208357 -0.137152,0.223791 -0.137152,0.223791 -0.0748,0.138904 -0.174546,0.408998 -0.03742,0.0926 -0.08728,0.0926 H 6.1279743 q -0.162076,0 -0.162076,-0.05402 0,-0.05402 0.112214,-0.154339 L 11.090115,21.258206 H 7.7238413 q -0.448837,0 -0.735593,0.192924 -0.174547,0.108037 -0.361561,0.370412 -0.149621,0.192924 -0.236887,0.192924 -0.08728,0 -0.187014,-0.03086 -0.137151,-0.03086 -0.137151,-0.07718 0,0.06946 0.274289,-0.609639 0.162074,-0.385847 0.211949,-0.586487 0,-0.02316 0.02494,-0.0463 0.02494,-0.02316 0.236887,-0.02316 0.04986,0 0.124675,0.06946 h 0.01252 q 0.174546,0.177489 0.561045,0.231508 0.21195,0.02316 0.710656,0.02316 h 4.1267977 q 0.199484,0 0.199484,0.05402 0,0.05402 -0.112214,0.154339 l -5.0120017,4.421805 h 2.007294 q 1.5958617,0 1.9698907,-0.07717 0.249354,-0.06173 0.610917,-0.370413 0.349095,-0.285527 0.37403,-0.285527 0.0748,0 0.199481,0.03086 0.124676,0.02316 0.124676,0.06173 z"
         style="font-size:10.5833px;line-height:6.61458px;font-family:Alfios;-inkscape-font-specification:Alfios;letter-spacing:0px;word-spacing:0px;fill:#9ccc65;fill-opacity:1;stroke:none;stroke-width:0.264584px"
         id="path14349" />
      <path
         id="path15683"
         style="font-size:10.5833px;line-height:6.61458px;font-family:Alfios;-inkscape-font-specification:Alfios;letter-spacing:0px;word-spacing:0px;fill:#5e35b1;fill-opacity:1;stroke:none;stroke-width:0.264583px"
         d="m 8.4816363,20.964885 -0.10232,0.293522 h 0.400493 l 0.0987,-0.293522 z m 0.552937,0 0.109555,0.293522 H 10.00609 L 9.8913693,20.964885 Z m 1.2505697,1.004073 -0.6583577,0.580326 0.310059,0.829408 0.6697267,-0.590664 z m -1.7916217,1.580266 -0.455786,0.402042 h 1.25057 l 0.455269,-0.402042 z m -0.673861,0.594278 -0.639754,0.564824 -0.333313,0.957564 c -0.0292,0.083 -0.06355,0.1568 -0.101802,0.222724 h 0.546736 c -8.3e-5,-0.0038 -5.16e-4,-0.0075 -5.16e-4,-0.01137 0,-0.105831 0.0283,-0.239763 0.08475,-0.402043 z m 3.8188887,1.274857 c -0.08585,0.04856 -0.16481,0.08194 -0.236678,0.09973 -0.119578,0.02467 -0.335438,0.04349 -0.642338,0.05633 l 0.03462,0.09147 c 0.02851,0.08554 0.04702,0.159592 0.05633,0.222724 h 0.991154 c -0.0383,-0.06566 -0.07366,-0.139742 -0.105936,-0.222724 z" />
    </g>
    <rect
       style="fill:#e1e2e1;fill-opacity:1;stroke:none;stroke-width:0.2;stroke-linecap:round;stroke-dashoffset:12.0735;stop-color:#000000"
       id="rect16205"
       width="9.6882954"
       height="9.6882954"
       x="2.3396788"
       y="1.4714369"
       ry="4.8441477"
       inkscape:export-filename="/home/lorenzo/progetti/AlfaZulu/ico-512.png"
       inkscape:export-xdpi="1342.3209"
       inkscape:export-ydpi="1342.3209" />
    <g
       id="g16107"
       transform="translate(-3.9037673,-44.15727)"
       style="font-size:10.5833px;line-height:6.61458px;font-family:Alfios;-inkscape-font-specification:Alfios;letter-spacing:0px;word-spacing:0px;fill:none;stroke:#000000;stroke-width:0.264583px"
       inkscape:export-filename="/home/lorenzo/progetti/AlfaZulu/ico-512.png"
       inkscape:export-xdpi="1342.3209"
       inkscape:export-ydpi="1342.3209">
      <path
         d="m 14.56951,53.293299 q 0,0.127 -0.09525,0.127 h -0.02117 q -0.201083,0 -0.603248,-0.03175 -0.402166,-0.03175 -0.592665,-0.03175 -0.201083,0 -0.603248,0.03175 -0.402166,0.03175 -0.603248,0.03175 h -0.02117 q -0.09525,0 -0.09525,-0.275166 0,-0.105833 0.148167,-0.126999 0.116416,0 0.222249,-0.01058 0.359832,-0.02117 0.359832,-0.296332 0,-0.116416 -0.0635,-0.306916 L 11.955428,50.689812 H 9.6906017 l -0.507998,1.523995 q -0.08467,0.243416 -0.08467,0.402165 0,0.317499 0.370416,0.380999 0.222249,0.03175 0.444498,0.0635 0.03175,0.03175 0.03175,0.243416 0,0.116416 -0.09525,0.116416 h -0.02117 q -0.179916,0 -0.529165,-0.03175 -0.349249,-0.03175 -0.529165,-0.03175 -0.179916,0 -0.529165,0.03175 -0.349249,0.03175 -0.529165,0.03175 h -0.02117 q -0.08467,0 -0.08467,-0.275166 0,-0.105833 0.116416,-0.116416 0.127,-0.01058 0.243416,-0.02117 0.486832,-0.03175 0.687915,-0.603248 l 1.9473273,-5.598565 q 0.560915,-0.338666 0.582081,-0.338666 0.03175,0 0.0635,0.08467 l 2.296576,5.852565 q 0.148166,0.380999 0.380999,0.518582 0.148166,0.09525 0.370415,0.09525 0.22225,0 0.243416,0.03175 0.03175,0.03175 0.03175,0.243416 z m -2.762241,-3.005657 -1.047747,-2.804574 -0.9419143,2.804574 z"
         style="fill:#5e35b1;fill-opacity:1;stroke:none"
         id="path15688" />
      <path
         d="m 14.518213,51.69322 q 0,0.03859 -0.112214,0.208357 -0.137152,0.223791 -0.137152,0.223791 -0.0748,0.138904 -0.174546,0.408998 -0.03742,0.0926 -0.08728,0.0926 H 7.9352707 q -0.162076,0 -0.162076,-0.05402 0,-0.05402 0.112214,-0.154339 L 12.897412,47.996799 H 9.5311377 q -0.448837,0 -0.735593,0.192924 -0.174547,0.108037 -0.361561,0.370412 -0.149621,0.192924 -0.236887,0.192924 -0.08728,0 -0.187014,-0.03086 -0.137151,-0.03086 -0.137151,-0.07718 0,0.06946 0.274289,-0.609639 0.162074,-0.385847 0.211949,-0.586487 0,-0.02316 0.02494,-0.0463 0.02494,-0.02316 0.236887,-0.02316 0.04986,0 0.124675,0.06946 h 0.01252 q 0.174546,0.177489 0.561045,0.231508 0.21195,0.02316 0.7106563,0.02316 h 4.126798 q 0.199484,0 0.199484,0.05402 0,0.05402 -0.112214,0.154339 l -5.0120023,4.421805 h 2.0072943 q 1.595862,0 1.969891,-0.07717 0.249354,-0.06173 0.610917,-0.370413 0.349095,-0.285527 0.37403,-0.285527 0.0748,0 0.199481,0.03086 0.124676,0.02316 0.124676,0.06173 z"
         style="fill:#29ace4;fill-opacity:1;stroke:none;stroke-width:0.264584px"
         id="path15690" />
      <path
         style="fill:#5e35b1;fill-opacity:1;stroke:none;stroke-width:0.264583px"
         d="m 13.445846,52.156952 c -0.08585,0.04856 -0.16481,0.08194 -0.236678,0.09973 -0.119578,0.02467 -0.335438,0.04349 -0.642338,0.05633 l 0.03462,0.09147 c 0.02851,0.08554 0.04702,0.159592 0.05633,0.222724 h 0.991154 c -0.0383,-0.06566 -0.07366,-0.139742 -0.105936,-0.222724 z"
         id="path15761" />
      <path
         style="fill:#5e35b1;fill-opacity:1;stroke:none;stroke-width:0.264583px"
         d="m 10.300818,50.287817 -0.4557863,0.402042 h 1.2505703 l 0.455269,-0.402042 z"
         id="path15757" />
      <path
         style="fill:#5e35b1;fill-opacity:1;stroke:none;stroke-width:0.264583px"
         d="M 10.84187,47.703478 10.951425,47.997 h 0.861962 l -0.114721,-0.293522 z"
         id="path15753" />
    </g>
  </g>
</svg>
